<?xml version="1.0" encoding="UTF-8"?>
<!DOCTYPE svg PUBLIC "-//W3C//DTD SVG 1.1//EN" "http://www.w3.org/Graphics/SVG/1.1/DTD/svg11.dtd">
<svg version="1.2" width="66.06mm" height="37.8mm" viewBox="3666 3698 6606 3780" preserveAspectRatio="xMidYMid" fill-rule="evenodd" stroke-width="28.222" stroke-linejoin="round" xmlns="http://www.w3.org/2000/svg" xmlns:ooo="http://xml.openoffice.org/svg/export" xmlns:xlink="http://www.w3.org/1999/xlink" xmlns:presentation="http://sun.com/xmlns/staroffice/presentation" xmlns:smil="http://www.w3.org/2001/SMIL20/" xmlns:anim="urn:oasis:names:tc:opendocument:xmlns:animation:1.0" xml:space="preserve">
 <defs class="ClipPathGroup">
  <clipPath id="presentation_clip_path" clipPathUnits="userSpaceOnUse">
   <rect x="3666" y="3698" width="6606" height="3780"/>
  </clipPath>
  <clipPath id="presentation_clip_path_shrink" clipPathUnits="userSpaceOnUse">
   <rect x="3672" y="3701" width="6593" height="3773"/>
  </clipPath>
 </defs>
 <defs class="TextShapeIndex">
  <g ooo:slide="id1" ooo:id-list="id3 id4 id5 id6 id7 id8"/>
 </defs>
 <defs class="EmbeddedBulletChars">
  <g id="bullet-char-template-57356" transform="scale(0.00048828125,-0.00048828125)">
   <path d="M 580,1141 L 1163,571 580,0 -4,571 580,1141 Z"/>
  </g>
  <g id="bullet-char-template-57354" transform="scale(0.00048828125,-0.00048828125)">
   <path d="M 8,1128 L 1137,1128 1137,0 8,0 8,1128 Z"/>
  </g>
  <g id="bullet-char-template-10146" transform="scale(0.00048828125,-0.00048828125)">
   <path d="M 174,0 L 602,739 174,1481 1456,739 174,0 Z M 1358,739 L 309,1346 659,739 1358,739 Z"/>
  </g>
  <g id="bullet-char-template-10132" transform="scale(0.00048828125,-0.00048828125)">
   <path d="M 2015,739 L 1276,0 717,0 1260,543 174,543 174,936 1260,936 717,1481 1274,1481 2015,739 Z"/>
  </g>
  <g id="bullet-char-template-10007" transform="scale(0.00048828125,-0.00048828125)">
   <path d="M 0,-2 C -7,14 -16,27 -25,37 L 356,567 C 262,823 215,952 215,954 215,979 228,992 255,992 264,992 276,990 289,987 310,991 331,999 354,1012 L 381,999 492,748 772,1049 836,1024 860,1049 C 881,1039 901,1025 922,1006 886,937 835,863 770,784 769,783 710,716 594,584 L 774,223 C 774,196 753,168 711,139 L 727,119 C 717,90 699,76 672,76 641,76 570,178 457,381 L 164,-76 C 142,-110 111,-127 72,-127 30,-127 9,-110 8,-76 1,-67 -2,-52 -2,-32 -2,-23 -1,-13 0,-2 Z"/>
  </g>
  <g id="bullet-char-template-10004" transform="scale(0.00048828125,-0.00048828125)">
   <path d="M 285,-33 C 182,-33 111,30 74,156 52,228 41,333 41,471 41,549 55,616 82,672 116,743 169,778 240,778 293,778 328,747 346,684 L 369,508 C 377,444 397,411 428,410 L 1163,1116 C 1174,1127 1196,1133 1229,1133 1271,1133 1292,1118 1292,1087 L 1292,965 C 1292,929 1282,901 1262,881 L 442,47 C 390,-6 338,-33 285,-33 Z"/>
  </g>
  <g id="bullet-char-template-9679" transform="scale(0.00048828125,-0.00048828125)">
   <path d="M 813,0 C 632,0 489,54 383,161 276,268 223,411 223,592 223,773 276,916 383,1023 489,1130 632,1184 813,1184 992,1184 1136,1130 1245,1023 1353,916 1407,772 1407,592 1407,412 1353,268 1245,161 1136,54 992,0 813,0 Z"/>
  </g>
  <g id="bullet-char-template-8226" transform="scale(0.00048828125,-0.00048828125)">
   <path d="M 346,457 C 273,457 209,483 155,535 101,586 74,649 74,723 74,796 101,859 155,911 209,963 273,989 346,989 419,989 480,963 531,910 582,859 608,796 608,723 608,648 583,586 532,535 482,483 420,457 346,457 Z"/>
  </g>
  <g id="bullet-char-template-8211" transform="scale(0.00048828125,-0.00048828125)">
   <path d="M -4,459 L 1135,459 1135,606 -4,606 -4,459 Z"/>
  </g>
  <g id="bullet-char-template-61548" transform="scale(0.00048828125,-0.00048828125)">
   <path d="M 173,740 C 173,903 231,1043 346,1159 462,1274 601,1332 765,1332 928,1332 1067,1274 1183,1159 1299,1043 1357,903 1357,740 1357,577 1299,437 1183,322 1067,206 928,148 765,148 601,148 462,206 346,322 231,437 173,577 173,740 Z"/>
  </g>
 </defs>
 <defs class="TextEmbeddedBitmaps"/>
 <g class="SlideGroup">
  <g>
   <g id="container-id1">
    <g id="id1" class="Slide" clip-path="url(#presentation_clip_path)">
     <g class="Page">
      <g class="com.sun.star.drawing.CustomShape">
       <g id="id3">
        <rect class="BoundingBox" stroke="none" fill="none" x="3666" y="5698" width="1781" height="1781"/>
        <path fill="rgb(114,159,207)" stroke="none" d="M 4556,5699 C 4720,5699 4859,5736 5001,5818 5143,5900 5244,6001 5326,6143 5408,6285 5446,6424 5446,6588 5446,6752 5408,6891 5326,7033 5244,7175 5143,7276 5001,7358 4859,7440 4720,7478 4556,7478 4392,7478 4253,7440 4111,7358 3969,7276 3868,7175 3786,7033 3704,6891 3667,6752 3667,6588 3667,6424 3704,6285 3786,6143 3868,6001 3969,5900 4111,5818 4253,5736 4392,5699 4556,5699 L 4556,5699 Z"/>
        <path fill="none" stroke="rgb(52,101,164)" d="M 4556,5699 C 4720,5699 4859,5736 5001,5818 5143,5900 5244,6001 5326,6143 5408,6285 5446,6424 5446,6588 5446,6752 5408,6891 5326,7033 5244,7175 5143,7276 5001,7358 4859,7440 4720,7478 4556,7478 4392,7478 4253,7440 4111,7358 3969,7276 3868,7175 3786,7033 3704,6891 3667,6752 3667,6588 3667,6424 3704,6285 3786,6143 3868,6001 3969,5900 4111,5818 4253,5736 4392,5699 4556,5699 L 4556,5699 Z"/>
       </g>
      </g>
      <g class="com.sun.star.drawing.CustomShape">
       <g id="id4">
        <rect class="BoundingBox" stroke="none" fill="none" x="3666" y="5698" width="1781" height="1781"/>
        <path fill="rgb(255,251,0)" stroke="none" d="M 4556,5699 C 4720,5699 4859,5736 5001,5818 5143,5900 5244,6001 5326,6143 5408,6285 5446,6424 5446,6588 5446,6752 5408,6891 5326,7033 5244,7175 5143,7276 5001,7358 4859,7440 4720,7478 4556,7478 4392,7478 4253,7440 4111,7358 3969,7276 3868,7175 3786,7033 3704,6891 3667,6752 3667,6588 3667,6424 3704,6285 3786,6143 3868,6001 3969,5900 4111,5818 4253,5736 4392,5699 4556,5699 L 4556,5699 Z"/>
        <path fill="none" stroke="rgb(255,251,0)" d="M 4556,5699 C 4720,5699 4859,5736 5001,5818 5143,5900 5244,6001 5326,6143 5408,6285 5446,6424 5446,6588 5446,6752 5408,6891 5326,7033 5244,7175 5143,7276 5001,7358 4859,7440 4720,7478 4556,7478 4392,7478 4253,7440 4111,7358 3969,7276 3868,7175 3786,7033 3704,6891 3667,6752 3667,6588 3667,6424 3704,6285 3786,6143 3868,6001 3969,5900 4111,5818 4253,5736 4392,5699 4556,5699 L 4556,5699 Z"/>
       </g>
      </g>
      <g class="com.sun.star.drawing.CustomShape">
       <g id="id5">
        <rect class="BoundingBox" stroke="none" fill="none" x="8492" y="3700" width="1781" height="1781"/>
        <path fill="rgb(114,159,207)" stroke="none" d="M 9382,3701 C 9546,3701 9685,3738 9827,3820 9969,3902 10070,4003 10152,4145 10234,4287 10272,4426 10272,4590 10272,4754 10234,4893 10152,5035 10070,5177 9969,5278 9827,5360 9685,5442 9546,5480 9382,5480 9218,5480 9079,5442 8937,5360 8795,5278 8694,5177 8612,5035 8530,4893 8493,4754 8493,4590 8493,4426 8530,4287 8612,4145 8694,4003 8795,3902 8937,3820 9079,3738 9218,3701 9382,3701 L 9382,3701 Z"/>
        <path fill="none" stroke="rgb(52,101,164)" d="M 9382,3701 C 9546,3701 9685,3738 9827,3820 9969,3902 10070,4003 10152,4145 10234,4287 10272,4426 10272,4590 10272,4754 10234,4893 10152,5035 10070,5177 9969,5278 9827,5360 9685,5442 9546,5480 9382,5480 9218,5480 9079,5442 8937,5360 8795,5278 8694,5177 8612,5035 8530,4893 8493,4754 8493,4590 8493,4426 8530,4287 8612,4145 8694,4003 8795,3902 8937,3820 9079,3738 9218,3701 9382,3701 Z"/>
       </g>
      </g>
      <g class="com.sun.star.drawing.CustomShape">
       <g id="id6">
        <rect class="BoundingBox" stroke="none" fill="none" x="5666" y="3698" width="1781" height="1781"/>
        <path fill="rgb(255,251,0)" stroke="none" d="M 6556,3699 C 6720,3699 6859,3736 7001,3818 7143,3900 7244,4001 7326,4143 7408,4285 7446,4424 7446,4588 7446,4752 7408,4891 7326,5033 7244,5175 7143,5276 7001,5358 6859,5440 6720,5478 6556,5478 6392,5478 6253,5440 6111,5358 5969,5276 5868,5175 5786,5033 5704,4891 5667,4752 5667,4588 5667,4424 5704,4285 5786,4143 5868,4001 5969,3900 6111,3818 6253,3736 6392,3699 6556,3699 L 6556,3699 Z"/>
        <path fill="none" stroke="rgb(255,251,0)" d="M 6556,3699 C 6720,3699 6859,3736 7001,3818 7143,3900 7244,4001 7326,4143 7408,4285 7446,4424 7446,4588 7446,4752 7408,4891 7326,5033 7244,5175 7143,5276 7001,5358 6859,5440 6720,5478 6556,5478 6392,5478 6253,5440 6111,5358 5969,5276 5868,5175 5786,5033 5704,4891 5667,4752 5667,4588 5667,4424 5704,4285 5786,4143 5868,4001 5969,3900 6111,3818 6253,3736 6392,3699 6556,3699 L 6556,3699 Z"/>
       </g>
      </g>
      <g class="com.sun.star.drawing.ConnectorShape">
       <g id="id7">
        <rect class="BoundingBox" stroke="none" fill="none" x="5185" y="5216" width="744" height="744"/>
        <path fill="none" stroke="rgb(52,101,164)" d="M 5927,5217 L 5489,5655"/>
        <path fill="rgb(52,101,164)" stroke="none" d="M 5185,5959 L 5609,5747 5397,5535 5185,5959 Z"/>
       </g>
      </g>
      <g class="com.sun.star.drawing.ConnectorShape">
       <g id="id8">
        <rect class="BoundingBox" stroke="none" fill="none" x="7445" y="4438" width="1050" height="302"/>
        <path fill="none" stroke="rgb(52,101,164)" d="M 8493,4590 L 7875,4589"/>
        <path fill="rgb(52,101,164)" stroke="none" d="M 7445,4588 L 7895,4739 7895,4439 7445,4588 Z"/>
       </g>
      </g>
     </g>
    </g>
   </g>
  </g>
 </g>
</svg>