<?xml version="1.0" encoding="UTF-8" standalone="no"?>
<!-- Created with Inkscape (http://www.inkscape.org/) -->

<svg
   xmlns:dc="http://purl.org/dc/elements/1.1/"
   xmlns:cc="http://creativecommons.org/ns#"
   xmlns:rdf="http://www.w3.org/1999/02/22-rdf-syntax-ns#"
   xmlns:svg="http://www.w3.org/2000/svg"
   xmlns="http://www.w3.org/2000/svg"
   xmlns:sodipodi="http://sodipodi.sourceforge.net/DTD/sodipodi-0.dtd"
   xmlns:inkscape="http://www.inkscape.org/namespaces/inkscape"
   version="1.1"
   id="svg1602"
   xml:space="preserve"
   width="480.24533"
   height="129.87466"
   viewBox="0 0 480.24533 129.87466"
   sodipodi:docname="githug-logo.svg"
   inkscape:version="0.92.4 5da689c313, 2019-01-14"><metadata
     id="metadata1608"><rdf:RDF><cc:Work
         rdf:about=""><dc:format>image/svg+xml</dc:format><dc:type
           rdf:resource="http://purl.org/dc/dcmitype/StillImage" /><dc:title></dc:title></cc:Work></rdf:RDF></metadata><defs
     id="defs1606" /><sodipodi:namedview
     pagecolor="#ffffff"
     bordercolor="#666666"
     borderopacity="1"
     objecttolerance="10"
     gridtolerance="10"
     guidetolerance="10"
     inkscape:pageopacity="0"
     inkscape:pageshadow="2"
     inkscape:window-width="1918"
     inkscape:window-height="1030"
     id="namedview1604"
     showgrid="false"
     fit-margin-top="0"
     fit-margin-left="0"
     fit-margin-right="0"
     fit-margin-bottom="0"
     inkscape:zoom="0.9399651"
     inkscape:cx="293.2373"
     inkscape:cy="-177.34396"
     inkscape:window-x="0"
     inkscape:window-y="24"
     inkscape:window-maximized="1"
     inkscape:current-layer="g1610" /><g
     id="g1610"
     inkscape:groupmode="layer"
     inkscape:label="ink_ext_XXXXXX"
     transform="matrix(1.3333333,0,0,-1.3333333,-143.87733,640.93732)"><path
       inkscape:connector-curvature="0"
       id="path1630"
       style="fill:#161312;fill-opacity:1;fill-rule:nonzero;stroke:none;stroke-width:0.1"
       d="m 177.281,439.013 h -30.267 c -0.781,0 -1.414,-0.634 -1.414,-1.416 V 422.8 c 0,-0.781 0.633,-1.417 1.414,-1.417 h 11.807 v -18.385 c 0,0 -2.651,-0.904 -9.981,-0.904 -8.647,0 -20.727,3.16 -20.727,29.724 0,26.568 12.579,30.064 24.388,30.064 10.223,0 14.626,-1.799 17.429,-2.666 0.881,-0.27 1.695,0.606 1.695,1.388 l 3.376,14.298 c 0,0.365 -0.124,0.806 -0.54,1.105 -1.138,0.811 -8.081,4.696 -25.621,4.696 -20.205,0 -40.932,-8.596 -40.932,-49.922 0,-41.326 23.73,-47.484 43.727,-47.484 16.557,0 26.601,7.075 26.601,7.075 0.414,0.229 0.459,0.807 0.459,1.073 v 46.152 c 0,0.782 -0.633,1.416 -1.414,1.416" /><path
       inkscape:connector-curvature="0"
       id="path1632"
       style="fill:#161312;fill-opacity:1;fill-rule:nonzero;stroke:none;stroke-width:0.1"
       d="m 333.265,475.752 c 0,0.787 -0.624,1.423 -1.406,1.423 h -17.042 c -0.778,0 -1.411,-0.636 -1.411,-1.423 0,-0.004 0.005,-32.935 0.005,-32.935 h -26.565 v 32.935 c 0,0.787 -0.626,1.423 -1.406,1.423 h -17.041 c -0.775,0 -1.408,-0.636 -1.408,-1.423 v -89.178 c 0,-0.787 0.633,-1.427 1.408,-1.427 h 17.041 c 0.78,0 1.406,0.64 1.406,1.427 v 38.144 h 26.565 c 0,0 -0.047,-38.141 -0.047,-38.144 0,-0.787 0.632,-1.427 1.412,-1.427 h 17.082 c 0.781,0 1.405,0.64 1.407,1.427 v 89.178" /><path
       inkscape:connector-curvature="0"
       id="path1634"
       style="fill:#161312;fill-opacity:1;fill-rule:nonzero;stroke:none;stroke-width:0.1"
       d="m 209.44,464.05 c 0,6.136 -4.919,11.095 -10.989,11.095 -6.064,0 -10.988,-4.959 -10.988,-11.095 0,-6.131 4.924,-11.103 10.988,-11.103 6.07,0 10.989,4.972 10.989,11.103" /><path
       inkscape:connector-curvature="0"
       id="path1636"
       style="fill:#161312;fill-opacity:1;fill-rule:nonzero;stroke:none;stroke-width:0.1"
       d="m 208.222,405.385 c 0,2.286 0,41.165 0,41.165 0,0.782 -0.631,1.421 -1.41,1.421 h -16.989 c -0.779,0 -1.476,-0.804 -1.476,-1.585 0,0 0,-49.535 0,-58.977 0,-1.733 1.08,-2.249 2.477,-2.249 0,0 7.252,0 15.306,0 1.68,0 2.092,0.825 2.092,2.277 0,3.161 0,15.545 0,17.948" /><path
       inkscape:connector-curvature="0"
       id="path1638"
       style="fill:#161312;fill-opacity:1;fill-rule:nonzero;stroke:none;stroke-width:0.1"
       d="m 398.032,447.837 h -16.911 c -0.775,0 -1.407,-0.64 -1.407,-1.426 v -43.727 c 0,0 -4.297,-3.143 -10.395,-3.143 -6.097,0 -7.715,2.767 -7.715,8.738 0,5.978 0,38.132 0,38.132 0,0.786 -0.63,1.426 -1.407,1.426 h -17.164 c -0.774,0 -1.409,-0.64 -1.409,-1.426 0,0 0,-23.286 0,-41.02 0,-17.735 9.884,-22.073 23.481,-22.073 11.156,0 20.15,6.162 20.15,6.162 0,0 0.428,-3.248 0.622,-3.633 0.193,-0.384 0.698,-0.772 1.244,-0.772 l 10.919,0.049 c 0.774,0 1.409,0.64 1.409,1.423 l -0.006,59.864 c 0,0.786 -0.631,1.426 -1.411,1.426" /><path
       inkscape:connector-curvature="0"
       id="path1640"
       style="fill:#161312;fill-opacity:1;fill-rule:nonzero;stroke:none;stroke-width:0.1"
       d="m 437.584,399.595 c -5.866,0.178 -9.845,2.84 -9.845,2.84 v 28.241 c 0,0 3.925,2.406 8.741,2.836 6.09,0.545 11.958,-1.294 11.958,-15.822 0,-15.319 -2.648,-18.343 -10.854,-18.095 z m 6.67,50.245 c -9.605,0 -16.138,-4.286 -16.138,-4.286 v 30.198 c 0,0.787 -0.63,1.423 -1.406,1.423 h -17.091 c -0.777,0 -1.408,-0.636 -1.408,-1.423 v -89.178 c 0,-0.787 0.631,-1.427 1.41,-1.427 0.002,0 11.854,0 11.858,0 0.534,0 0.938,0.275 1.237,0.757 0.295,0.48 0.72,4.112 0.72,4.112 0,0 6.988,-6.622 20.217,-6.622 15.532,0 24.439,7.877 24.439,35.365 0,27.489 -14.226,31.081 -23.838,31.081" /><path
       inkscape:connector-curvature="0"
       id="path1642"
       style="fill:#161312;fill-opacity:1;fill-rule:nonzero;stroke:none;stroke-width:0.1"
       d="m 257.202,447.979 h -12.784 c 0,0 -0.019,16.885 -0.019,16.888 0,0.64 -0.33,0.959 -1.069,0.959 h -17.42 c -0.678,0 -1.041,-0.298 -1.041,-0.949 v -17.452 c 0,0 -8.73,-2.107 -9.321,-2.278 -0.587,-0.17 -1.02,-0.712 -1.02,-1.359 v -10.967 c 0,-0.789 0.63,-1.425 1.409,-1.425 h 8.932 c 0,0 0,-11.471 0,-26.384 0,-19.597 13.746,-21.522 23.021,-21.522 4.239,0 9.309,1.361 10.146,1.67 0.506,0.186 0.8,0.711 0.8,1.279 l 0.015,12.065 c 0,0.786 -0.665,1.423 -1.413,1.423 -0.746,0 -2.651,-0.303 -4.613,-0.303 -6.28,0 -8.407,2.919 -8.407,6.699 0,3.776 -0.001,25.073 -0.001,25.073 h 12.785 c 0.779,0 1.41,0.636 1.41,1.425 v 13.737 c 0,0.787 -0.631,1.421 -1.41,1.421" /></g></svg>